<?xml version="1.0" standalone="no"?>
<!DOCTYPE svg PUBLIC "-//W3C//DTD SVG 20010904//EN"
 "http://www.w3.org/TR/2001/REC-SVG-20010904/DTD/svg10.dtd">
<svg version="1.0" xmlns="http://www.w3.org/2000/svg"
 width="960.000000pt" height="960.000000pt" viewBox="0 0 960.000000 960.000000"
 preserveAspectRatio="xMidYMid meet">
<metadata>
Created by potrace 1.11, written by Peter Selinger 2001-2013
</metadata>
<g transform="translate(0.000000,960.000000) scale(0.100000,-0.100000)"
fill="#000000" stroke="none">
<path d="M6 7658 c4 -12 13 -43 20 -68 7 -25 30 -108 52 -185 22 -77 55 -194
74 -259 l33 -120 365 -241 c201 -133 430 -284 510 -337 80 -52 246 -162 370
-244 124 -82 230 -151 235 -154 6 -3 36 -23 69 -45 32 -22 66 -44 74 -50 9 -5
101 -67 206 -136 105 -69 256 -168 336 -221 674 -441 908 -597 914 -606 2 -4
7 -23 10 -42 9 -54 16 -92 22 -124 5 -22 3 -27 -7 -20 -8 4 -52 34 -99 64 -47
31 -132 87 -190 125 -58 38 -181 119 -275 180 -93 62 -223 146 -287 188 -65
43 -171 111 -235 154 -65 42 -188 122 -273 178 -338 222 -497 326 -813 532
-56 36 -108 71 -115 76 -9 7 -11 6 -7 -4 2 -8 18 -71 35 -141 16 -71 43 -184
60 -252 16 -68 32 -137 35 -153 18 -96 30 -122 72 -152 24 -17 47 -31 51 -31
5 0 17 -9 27 -20 10 -11 24 -20 31 -20 7 0 14 -4 16 -8 2 -5 131 -95 288 -201
277 -187 393 -266 820 -555 113 -77 381 -259 595 -404 215 -146 395 -270 402
-276 7 -6 15 -29 18 -51 4 -22 8 -47 10 -55 3 -8 7 -32 11 -54 4 -30 3 -36 -8
-30 -7 4 -80 54 -163 109 -82 56 -240 162 -350 237 -110 74 -346 233 -525 353
-179 120 -333 225 -344 234 -18 15 -18 14 -12 -34 4 -27 11 -72 16 -100 13
-68 47 -261 55 -310 4 -22 8 -47 9 -55 3 -16 46 -48 716 -530 239 -173 437
-317 438 -322 2 -4 8 -8 13 -8 5 0 48 -28 94 -62 47 -35 107 -79 134 -98 45
-32 50 -40 61 -92 l11 -58 -80 -165 c-45 -91 -81 -169 -81 -174 0 -4 152 -8
338 -9 185 0 344 -1 353 -1 8 -1 42 -38 74 -83 33 -46 63 -87 68 -93 11 -14
344 -474 365 -505 9 -14 47 -67 85 -118 l68 -93 34 48 c19 26 46 64 60 83 42
60 78 111 186 260 346 479 363 500 383 501 12 0 171 1 354 1 182 1 332 5 332
10 0 4 -36 81 -81 171 -84 170 -82 162 -63 258 3 15 20 36 42 51 28 19 413
296 547 394 11 8 205 147 430 310 226 162 415 302 422 312 6 9 14 37 18 62 3
25 8 52 10 60 2 8 6 33 10 55 3 22 14 90 25 150 10 61 22 130 25 154 l6 44
-48 -35 c-26 -19 -187 -129 -358 -243 -425 -286 -846 -569 -930 -627 -38 -27
-71 -44 -73 -39 -4 11 25 169 33 181 3 5 38 30 78 57 39 26 186 125 325 220
139 95 257 173 262 173 4 0 10 3 12 8 2 4 53 41 113 82 61 41 169 114 240 163
72 48 207 140 300 203 94 64 244 166 335 228 91 61 248 168 350 236 102 69
191 130 198 137 6 6 20 14 30 17 9 3 22 14 29 25 9 15 50 170 67 256 3 11 25
107 51 213 26 106 45 195 42 198 -2 3 -51 -26 -108 -64 -149 -98 -510 -335
-636 -417 -60 -38 -235 -153 -390 -255 -156 -102 -363 -237 -460 -301 -98 -64
-259 -169 -358 -234 -347 -228 -345 -227 -345 -208 0 10 4 34 9 53 6 19 12 53
15 75 7 49 25 65 187 170 160 103 791 518 846 556 23 16 46 29 52 29 6 0 11 4
11 8 0 4 15 16 32 27 18 10 150 96 293 190 143 95 368 243 500 330 132 87 298
197 370 244 71 47 134 88 140 91 5 3 156 102 335 221 l325 216 89 314 c49 173
91 320 94 327 4 12 -80 -29 -263 -128 -27 -15 -99 -54 -160 -86 -60 -32 -132
-71 -160 -85 -27 -15 -74 -40 -103 -54 -30 -15 -88 -46 -130 -69 -43 -24 -124
-67 -182 -98 -58 -31 -134 -71 -170 -90 -36 -19 -114 -61 -175 -93 -60 -32
-132 -70 -160 -85 -27 -15 -90 -49 -140 -75 -109 -58 -219 -116 -300 -160 -77
-41 -196 -105 -304 -162 -207 -110 -411 -218 -466 -248 -33 -18 -98 -53 -145
-77 -47 -25 -115 -61 -150 -80 -36 -19 -110 -59 -165 -88 -94 -50 -164 -87
-295 -157 -30 -17 -176 -94 -325 -173 -148 -79 -301 -160 -340 -181 -76 -40
-76 -40 -90 -153 -4 -27 -8 -56 -10 -65 -1 -9 -18 -108 -35 -221 -18 -113 -37
-209 -41 -214 -9 -10 -969 -10 -979 1 -4 4 -15 58 -24 118 -10 61 -19 121 -22
135 -10 56 -36 217 -39 240 -6 43 -16 94 -20 110 -3 8 -64 47 -137 85 -248
131 -343 181 -528 280 -102 55 -210 112 -240 128 -30 16 -75 40 -100 54 -25
13 -106 56 -180 95 -74 39 -162 85 -195 103 -58 32 -554 297 -745 398 -52 27
-151 80 -220 117 -69 37 -174 93 -235 125 -60 32 -162 86 -225 120 -63 34
-160 86 -215 115 -55 29 -165 88 -245 130 -80 43 -190 101 -245 130 -55 29
-156 83 -225 120 -69 37 -161 87 -205 110 -44 23 -122 65 -173 92 -86 46 -93
48 -86 26z"/>
<path d="M4755 7418 c-22 -68 -40 -125 -40 -128 -1 -3 -15 -48 -32 -100 -42
-124 -43 -135 -18 -135 11 -1 19 -5 19 -10 -3 -19 -75 -239 -84 -255 -7 -13
-30 -16 -152 -14 -79 1 -144 2 -146 3 -1 0 2 10 8 21 6 11 7 20 3 21 -52 4
-510 2 -507 -3 4 -6 393 -290 405 -296 4 -2 10 6 14 18 7 21 8 21 33 4 15 -10
63 -44 107 -76 43 -33 85 -63 93 -67 12 -7 7 -32 -27 -137 -46 -142 -55 -162
-65 -145 -16 25 -32 7 -50 -56 -11 -38 -22 -72 -25 -78 -3 -5 -6 -14 -8 -20
-1 -5 -24 -76 -51 -158 -26 -81 -46 -149 -44 -151 2 -3 56 34 120 81 65 47
156 113 204 146 81 58 85 63 71 80 -19 21 -26 13 84 92 48 36 97 71 108 80 25
20 22 21 80 -23 28 -21 78 -57 113 -81 34 -24 62 -46 62 -49 0 -3 -6 -13 -14
-21 -12 -14 9 -33 191 -164 112 -82 206 -147 207 -145 2 1 -33 113 -76 246
-77 238 -80 243 -98 227 -16 -14 -21 -15 -25 -4 -26 75 -87 271 -84 273 2 1
56 39 118 85 110 78 115 81 126 61 10 -20 21 -13 201 116 104 75 197 144 206
153 16 15 -1 16 -225 14 -309 -2 -280 1 -267 -22 5 -11 10 -21 10 -23 0 -2
-66 -3 -146 -3 -120 0 -148 3 -155 15 -17 29 -87 260 -80 264 3 2 14 2 24 1 9
-2 17 -1 17 1 0 2 -27 86 -60 186 -32 101 -67 209 -77 241 -9 31 -20 57 -23
57 -3 0 -23 -55 -45 -122z"/>
</g>
</svg>
